<svg width="100" height="100" viewBox="0 0 100 100" fill="none" xmlns="http://www.w3.org/2000/svg">
<g clip-path="url(#clip0_5_26)">
<path d="M99.6621 14.7619L52.6938 98.4342C51.724 100.162 49.2325 100.172 48.2483 98.4529L0.348825 14.7697C-0.72368 12.8965 0.884296 10.6272 3.01524 11.007L50.034 19.3794C50.334 19.4328 50.6411 19.4323 50.9409 19.3778L96.9762 11.0187C99.1001 10.6331 100.715 12.8848 99.6621 14.7619Z" fill="url(#paint0_linear_5_26)"/>
<path d="M72.4312 0.0245405L37.6736 6.80975C37.3959 6.86396 37.1441 7.00857 36.9579 7.22086C36.7717 7.43315 36.6616 7.70108 36.6449 7.98252L34.5069 43.9576C34.4951 44.1549 34.5297 44.3522 34.6079 44.5339C34.686 44.7156 34.8056 44.8766 34.9571 45.0042C35.1087 45.1318 35.288 45.2224 35.4808 45.2689C35.6736 45.3154 35.8747 45.3164 36.068 45.272L45.7451 43.0471C46.6505 42.8389 47.4687 43.6335 47.2824 44.5405L44.4074 58.5666C44.2141 59.5105 45.1034 60.3175 46.0287 60.0374L52.006 58.2284C52.9324 57.9483 53.8229 58.7576 53.6268 59.7024L49.0579 81.7339C48.772 83.1121 50.612 83.8634 51.3791 82.6821L51.8919 81.893L80.2145 25.5817C80.689 24.6389 79.8708 23.5638 78.8319 23.7638L68.8704 25.679C67.9346 25.8588 67.1382 24.9903 67.4022 24.0782L73.9036 1.62493C74.1681 0.710533 73.3682 -0.158339 72.4312 0.0245405Z" fill="url(#paint1_linear_5_26)"/>
</g>
<defs>
<linearGradient id="paint0_linear_5_26" x1="-82.781" y1="690.242" x2="4958.06" y2="7561.92" gradientUnits="userSpaceOnUse">
<stop stop-color="#41D1FF"/>
<stop offset="1" stop-color="#BD34FE"/>
</linearGradient>
<linearGradient id="paint1_linear_5_26" x1="2023.21" y1="186.688" x2="3057.64" y2="7309.36" gradientUnits="userSpaceOnUse">
<stop stop-color="#FFEA83"/>
<stop offset="0.08333" stop-color="#FFDD35"/>
<stop offset="1" stop-color="#FFA800"/>
</linearGradient>
<clipPath id="clip0_5_26">
<rect width="100" height="100" fill="white"/>
</clipPath>
</defs>
</svg>
